<svg width="40" height="40" viewBox="0 0 40 40" fill="none" xmlns="http://www.w3.org/2000/svg">
<g filter="url(#filter0_d)">
<path d="M36 16C36 24.8366 28.8366 32 20 32C11.1634 32 4 24.8366 4 16C4 7.16344 11.1634 0 20 0C28.8366 0 36 7.16344 36 16Z" fill="#F3F3F3"/>
</g>
<g filter="url(#filter1_d)">
<path d="M9.35 24.89C10.55 24.89 11.37 24.8 11.81 24.62C12.27 24.44 12.5 24.1 12.5 23.6C12.5 23.36 12.28 22.3 11.84 20.42L8.36 5.66H11.6L13.94 18.62L16.19 5.66H19.43L15.29 23.96C15.01 25.18 14.42 26.05 13.52 26.57C12.62 27.09 11.36 27.35 9.74 27.35H9.35V24.89Z" fill="black"/>
<path d="M21.368 5.66H24.578V7.04C25.518 5.96 26.618 5.42 27.878 5.42C29.458 5.42 30.508 6.1 31.028 7.46C31.568 8.8 31.838 10.29 31.838 11.93V16.13C31.838 18.25 31.508 19.97 30.848 21.29C30.208 22.59 29.098 23.24 27.518 23.24C26.498 23.24 25.518 22.73 24.578 21.71V28.7H21.368V5.66ZM26.888 20.72C27.628 20.72 28.098 20.35 28.298 19.61C28.518 18.85 28.628 17.69 28.628 16.13V11.93C28.628 10.65 28.508 9.67 28.268 8.99C28.028 8.29 27.528 7.94 26.768 7.94C26.028 7.94 25.298 8.24 24.578 8.84V19.94C25.278 20.46 26.048 20.72 26.888 20.72Z" fill="black"/>
</g>
<defs>
<filter id="filter0_d" x="0" y="0" width="40" height="40" filterUnits="userSpaceOnUse" color-interpolation-filters="sRGB">
<feFlood flood-opacity="0" result="BackgroundImageFix"/>
<feColorMatrix in="SourceAlpha" type="matrix" values="0 0 0 0 0 0 0 0 0 0 0 0 0 0 0 0 0 0 127 0"/>
<feOffset dy="4"/>
<feGaussianBlur stdDeviation="2"/>
<feColorMatrix type="matrix" values="0 0 0 0 0 0 0 0 0 0 0 0 0 0 0 0 0 0 0.25 0"/>
<feBlend mode="normal" in2="BackgroundImageFix" result="effect1_dropShadow"/>
<feBlend mode="normal" in="SourceGraphic" in2="effect1_dropShadow" result="shape"/>
</filter>
<filter id="filter1_d" x="4.36" y="5.42" width="31.478" height="31.28" filterUnits="userSpaceOnUse" color-interpolation-filters="sRGB">
<feFlood flood-opacity="0" result="BackgroundImageFix"/>
<feColorMatrix in="SourceAlpha" type="matrix" values="0 0 0 0 0 0 0 0 0 0 0 0 0 0 0 0 0 0 127 0"/>
<feOffset dy="4"/>
<feGaussianBlur stdDeviation="2"/>
<feColorMatrix type="matrix" values="0 0 0 0 0 0 0 0 0 0 0 0 0 0 0 0 0 0 0.25 0"/>
<feBlend mode="normal" in2="BackgroundImageFix" result="effect1_dropShadow"/>
<feBlend mode="normal" in="SourceGraphic" in2="effect1_dropShadow" result="shape"/>
</filter>
</defs>
</svg>
